<?xml version="1.0" standalone="no"?>
<!DOCTYPE svg PUBLIC "-//W3C//DTD SVG 20010904//EN"
 "http://www.w3.org/TR/2001/REC-SVG-20010904/DTD/svg10.dtd">
<svg version="1.0" xmlns="http://www.w3.org/2000/svg"
 width="128.000000pt" height="128.000000pt" viewBox="0 0 128.000000 128.000000"
 preserveAspectRatio="xMidYMid meet">

<g transform="translate(0.000000,128.000000) scale(0.100000,-0.100000)"
fill="#141e30" stroke="none">
<path d="M532 1169 c-89 -60 -162 -112 -162 -115 0 -2 132 -4 292 -4 l293 0
-115 115 c-63 63 -122 115 -130 115 -9 0 -89 -50 -178 -111z"/>
<path d="M715 600 c225 -225 411 -410 413 -410 12 0 55 121 55 155 -1 24 -45
165 -111 350 l-109 310 -329 3 -329 2 410 -410z"/>
<path d="M272 644 l3 -327 310 -109 c185 -66 326 -110 350 -111 25 0 65 11
100 27 l59 27 -409 409 c-226 226 -411 410 -413 410 -1 0 -1 -147 0 -326z"/>
<path d="M1040 915 c6 -16 52 -146 102 -289 99 -284 101 -301 57 -387 -11 -23
-19 -43 -16 -45 4 -5 69 16 78 25 4 3 10 119 13 257 l7 250 -108 94 c-162 140
-146 129 -133 95z"/>
<path d="M111 748 c-61 -89 -111 -169 -111 -178 0 -8 52 -67 115 -130 l115
-115 0 293 c0 160 -2 292 -4 292 -3 0 -55 -73 -115 -162z"/>
<path d="M351 233 c9 -10 57 -67 109 -126 l94 -108 250 7 c138 3 254 9 257 13
9 9 30 74 25 78 -2 3 -22 -5 -45 -16 -86 -44 -103 -42 -387 57 -143 50 -273
96 -289 102 -27 10 -28 10 -14 -7z"/>
</g>
</svg>
